<?xml version="1.0" standalone="no"?>
<!DOCTYPE svg PUBLIC "-//W3C//DTD SVG 20010904//EN"
 "http://www.w3.org/TR/2001/REC-SVG-20010904/DTD/svg10.dtd">
<svg version="1.0" xmlns="http://www.w3.org/2000/svg"
 width="512.000000pt" height="512.000000pt" viewBox="0 0 512.000000 512.000000"
 preserveAspectRatio="xMidYMid meet">

<g transform="translate(0.000000,512.000000) scale(0.100000,-0.100000)"
fill="#000000" stroke="none">
<path d="M2430 5110 c-484 -43 -921 -294 -1207 -695 -345 -484 -398 -1121
-138 -1660 57 -118 152 -268 215 -337 l39 -43 1 43 c0 58 10 75 93 159 l70 71
-30 39 c-163 207 -266 555 -250 848 33 610 461 1119 1057 1256 113 26 352 36
468 20 566 -81 1019 -499 1142 -1052 11 -49 20 -103 20 -121 0 -27 20 -51 148
-180 l147 -149 7 63 c20 175 -24 467 -101 677 -161 434 -528 801 -962 962
-222 81 -495 119 -719 99z"/>
</g>
</svg>
